<?xml version="1.0" standalone="no"?>
<!DOCTYPE svg PUBLIC "-//W3C//DTD SVG 20010904//EN"
 "http://www.w3.org/TR/2001/REC-SVG-20010904/DTD/svg10.dtd">
<svg version="1.0" xmlns="http://www.w3.org/2000/svg"
 width="300.000000pt" height="186.000000pt" viewBox="0 0 300.000000 186.000000"
 preserveAspectRatio="xMidYMid meet">
<metadata>
Created by potrace 1.10, written by Peter Selinger 2001-2011
</metadata>
<g transform="translate(0.000000,186.000000) scale(0.100000,-0.100000)"
fill="#000000" stroke="none">
<path d="M1145 1591 c-77 -19 -127 -64 -145 -131 -5 -20 -10 -130 -10 -244 -1
-202 -1 -207 -25 -243 -35 -50 -34 -120 0 -161 23 -27 97 -62 132 -62 8 0 -1
15 -21 33 -19 19 -40 46 -46 61 -6 17 -10 138 -10 307 0 307 3 324 59 372 53
44 91 49 385 45 264 -3 272 -4 309 -26 21 -13 44 -36 52 -52 12 -23 23 -28 66
-34 119 -16 178 -91 150 -192 -16 -58 -77 -156 -138 -219 -53 -56 -53 -56 -53
-122 0 -107 -38 -160 -131 -182 -48 -12 -380 -20 -373 -10 2 4 -29 -2 -69 -12
-166 -44 -291 -33 -352 31 -25 26 -29 38 -29 83 1 34 10 72 28 111 25 56 25
58 5 40 -23 -20 -58 -89 -65 -130 -3 -14 0 -42 6 -62 29 -110 176 -156 365
-114 53 12 132 20 195 21 308 5 304 4 356 36 68 43 99 110 103 226 1 10 20 38
44 64 57 63 117 154 124 188 3 15 10 30 14 33 5 3 9 28 9 56 0 96 -70 170
-171 183 -20 2 -43 14 -55 29 -12 13 -41 37 -65 53 l-44 28 -285 2 c-157 0
-298 -2 -315 -6z"/>
<path d="M1850 1244 c1 -103 5 -183 10 -178 4 5 26 37 48 72 80 124 76 229
-10 273 -20 10 -40 19 -43 19 -3 0 -5 -84 -5 -186z m71 92 c15 -33 0 -121 -21
-121 -12 0 -15 14 -15 65 -1 36 1 68 3 73 7 14 23 7 33 -17z"/>
<path d="M1154 1352 c-11 -7 -34 -45 -34 -56 0 -15 17 -3 43 29 25 32 20 47
-9 27z"/>
<path d="M1180 1308 c-40 -46 -42 -51 -20 -45 14 4 34 7 45 7 11 0 37 21 58
45 l38 45 -39 0 c-35 0 -44 -6 -82 -52z"/>
<path d="M1294 1315 c-20 -25 -35 -47 -33 -49 2 -2 20 -1 39 2 25 4 46 17 74
48 l39 44 -41 0 c-36 0 -45 -5 -78 -45z"/>
<path d="M1400 1310 l-42 -51 43 7 c24 4 44 7 44 8 0 1 18 20 40 44 l39 42
-41 0 c-37 0 -45 -5 -83 -50z"/>
<path d="M1507 1309 l-39 -50 42 7 c31 5 51 17 75 43 38 41 37 51 -8 51 -26
-1 -39 -10 -70 -51z"/>
<path d="M1619 1313 c-44 -53 -44 -53 -10 -53 35 0 49 20 35 51 -9 20 -10 20
-25 2z"/>
<path d="M1683 1243 c-9 -3 -13 -32 -13 -93 l0 -88 30 -7 c16 -4 34 -4 40 0 6
3 10 47 10 101 l0 94 -27 -1 c-16 0 -34 -3 -40 -6z"/>
<path d="M1130 1107 c0 -117 2 -136 18 -150 16 -15 48 -17 240 -17 187 0 223
2 236 16 19 19 18 10 20 161 l1 123 -257 0 -258 0 0 -133z m140 20 c0 -87 15
-127 48 -127 29 0 166 63 190 88 27 29 20 47 -33 76 -21 12 -38 26 -39 31 0 6
34 11 77 13 104 4 108 -1 102 -113 -8 -136 9 -127 -231 -123 -169 2 -206 6
-214 18 -14 22 -12 194 2 208 7 7 31 12 55 12 l43 0 0 -83z m218 3 c20 0 23
-20 5 -26 -10 -4 -57 -24 -105 -45 l-88 -38 0 94 0 94 89 -40 c49 -21 93 -39
99 -39z"/>
<path d="M2365 567 c-16 -6 -41 -18 -54 -29 -21 -16 -25 -16 -35 -3 -6 8 -25
19 -43 24 -27 8 -35 6 -53 -14 -14 -15 -24 -39 -25 -62 -1 -21 -3 -42 -4 -47
-1 -11 -54 3 -63 17 -4 7 -8 26 -8 43 0 54 -67 86 -104 49 -19 -19 -35 -19
-58 2 -10 9 -41 18 -71 21 -44 3 -58 0 -90 -22 l-38 -26 -32 22 c-25 18 -45
23 -89 22 -32 -1 -64 -6 -71 -13 -11 -8 -21 -8 -43 4 -36 19 -121 18 -153 -2
-20 -13 -27 -13 -49 -2 -37 20 -146 18 -169 -4 -18 -16 -21 -16 -59 4 -29 15
-52 19 -88 16 -42 -4 -55 -10 -84 -42 l-35 -38 -32 38 c-37 45 -75 50 -121 18
l-29 -21 -29 25 c-25 21 -36 24 -87 20 -87 -6 -99 -20 -99 -123 0 -80 1 -84
27 -101 35 -23 60 -18 95 19 l28 30 34 -37 c29 -30 39 -35 58 -28 13 4 51 7
86 6 35 -2 73 2 84 8 15 8 29 7 59 -5 52 -21 77 -20 124 4 40 21 40 21 75 1
39 -21 109 -22 159 -1 24 10 33 9 55 -5 25 -16 28 -16 54 0 15 10 30 24 35 31
6 11 62 44 74 44 1 0 3 -9 3 -20 0 -12 11 -32 24 -45 20 -20 29 -22 60 -15 20
4 38 4 41 0 6 -10 71 4 89 19 11 9 22 7 48 -9 44 -26 95 -25 150 4 l44 23 28
-23 c33 -29 101 -32 152 -8 30 15 37 15 52 2 9 -8 23 -13 30 -12 6 1 16 2 20
3 5 0 18 10 30 22 22 20 22 20 50 0 58 -41 133 -39 177 5 28 28 29 33 14 68
-9 20 -9 29 1 41 43 52 -65 128 -145 102z m-1735 -53 c0 -26 -1 -27 -55 -21
-50 5 -55 4 -55 -14 0 -16 7 -19 51 -19 46 0 50 -2 47 -22 -3 -20 -8 -22 -50
-19 -41 2 -48 0 -48 -16 0 -14 2 -15 9 -5 6 10 10 8 14 -9 8 -31 3 -36 -33
-31 l-30 4 0 84 0 83 68 4 c37 2 70 4 75 5 4 1 7 -10 7 -24z m194 -73 c20 -47
36 -86 36 -88 0 -8 -67 12 -76 23 -6 8 -27 14 -47 14 -29 0 -34 -3 -30 -18 4
-15 -1 -18 -30 -14 l-34 4 36 83 c33 76 39 84 66 87 17 2 33 1 36 -2 4 -3 23
-43 43 -89z m238 72 c23 -21 23 -25 -3 -42 -19 -11 -25 -10 -51 9 -25 18 -34
20 -54 11 -13 -6 -24 -16 -23 -23 0 -10 2 -10 6 0 9 23 18 12 18 -22 0 -29 -2
-32 -15 -23 -13 10 -13 10 -1 -5 16 -22 44 -23 74 -4 18 12 26 12 46 2 l24
-13 -22 -22 c-16 -16 -33 -21 -70 -21 -64 0 -79 6 -97 42 -26 51 -5 111 46
131 25 11 102 -2 122 -20z m218 1 c0 -26 -1 -27 -55 -21 -51 5 -55 4 -55 -15
0 -18 5 -20 45 -16 42 5 45 4 45 -17 0 -21 -3 -22 -45 -17 -38 4 -45 2 -45
-12 0 -15 9 -17 53 -15 48 3 52 1 52 -19 0 -12 -3 -22 -7 -22 -5 0 -39 0 -76
0 l-68 0 0 85 0 84 71 4 c38 1 73 4 78 5 4 1 7 -10 7 -24z m200 0 c0 -26 -1
-27 -55 -21 -50 5 -55 4 -55 -14 0 -16 7 -19 50 -19 46 0 50 -2 50 -24 0 -22
-3 -23 -50 -18 -44 4 -50 2 -50 -14 0 -14 2 -16 9 -6 6 10 10 8 14 -9 8 -31 3
-36 -33 -31 l-30 4 0 84 0 83 68 4 c37 2 70 4 75 5 4 1 7 -10 7 -24z m410 13
c55 -28 64 -121 14 -153 -14 -10 -44 -16 -72 -16 -60 1 -92 33 -92 92 0 70 81
112 150 77z m160 -54 c0 -48 -3 -64 -10 -53 -8 13 -10 12 -10 -4 0 -16 6 -18
55 -14 l55 5 0 -30 c0 -22 -4 -28 -16 -23 -9 3 -42 6 -75 6 l-59 0 0 84 c0 91
-3 84 53 95 4 0 7 -29 7 -66z m204 -20 c-1 -49 -4 -89 -8 -90 -3 -2 -17 -3
-31 -3 -25 0 -25 1 -25 84 0 90 -2 87 55 95 6 0 10 -33 9 -86z m230 58 c21
-22 21 -22 2 -36 -17 -13 -23 -12 -52 6 -41 25 -71 18 -80 -18 -13 -52 32 -79
80 -48 19 13 29 14 45 5 25 -13 26 -18 4 -42 -12 -13 -31 -18 -74 -18 -50 0
-60 3 -78 26 -23 30 -28 90 -8 115 35 45 121 50 161 10z m-800 -3 c20 -28 20
-59 0 -84 -14 -18 -15 -18 -8 6 6 24 6 24 -10 5 -17 -22 -21 -39 -7 -31 9 6
57 -41 50 -49 -12 -11 -81 9 -90 26 -5 11 -17 19 -26 19 -13 0 -14 -3 -5 -12
20 -20 14 -28 -21 -28 l-33 0 1 85 0 85 67 0 c58 0 69 -3 82 -22z"/>
<path d="M726 454 c-10 -26 -7 -34 14 -34 11 0 20 4 20 9 0 17 -12 41 -20 41
-4 0 -11 -7 -14 -16z"/>
<path d="M1796 484 c-9 -8 -15 -25 -15 -37 1 -20 2 -21 6 -2 9 35 18 35 19 0
0 -20 -4 -31 -9 -28 -6 3 -7 1 -3 -5 9 -16 49 -15 64 0 19 19 15 66 -7 78 -27
14 -37 13 -55 -6z"/>
<path d="M1580 484 c0 -8 5 -12 10 -9 6 3 10 -1 10 -10 0 -9 -4 -13 -10 -10
-5 3 -10 0 -10 -8 0 -10 8 -13 25 -9 43 8 29 62 -16 62 -5 0 -9 -7 -9 -16z"/>
<path d="M680 302 c-31 -10 -50 -36 -50 -68 0 -37 -11 -48 -40 -39 -14 4 -20
15 -20 34 0 30 -27 61 -53 61 -41 0 -64 -111 -32 -157 20 -29 78 -38 116 -19
26 13 34 13 52 2 32 -21 97 -13 118 13 14 17 15 26 6 51 -6 16 -8 32 -4 36 13
13 37 -6 42 -33 8 -37 18 -54 38 -67 22 -14 54 17 61 58 8 43 22 53 45 32 13
-12 27 -15 45 -10 24 6 26 3 26 -23 0 -36 25 -60 69 -69 27 -6 37 -2 62 22 28
26 38 62 22 78 -5 4 -8 15 -9 24 -1 10 -2 24 -3 33 -3 35 -91 52 -122 23 -11
-10 -23 -13 -31 -7 -7 4 -31 9 -53 10 -22 1 -57 5 -79 9 -23 4 -53 1 -76 -6
-29 -9 -42 -10 -59 0 -28 14 -52 19 -71 12z m-140 -86 l0 -55 35 6 c31 5 35 3
35 -16 0 -19 -6 -21 -55 -21 l-55 0 0 70 c0 63 2 70 20 70 18 0 20 -7 20 -54z
m220 39 c0 -10 -11 -15 -35 -15 -25 0 -35 -4 -35 -15 0 -11 8 -15 26 -13 15 2
29 -3 31 -9 3 -9 -6 -13 -26 -13 -22 0 -31 -5 -31 -16 0 -13 7 -15 35 -10 31
6 35 4 35 -14 0 -19 -5 -21 -51 -18 l-52 3 -2 68 -2 67 54 0 c40 0 53 -4 53
-15z m170 0 c0 -9 -9 -15 -25 -15 -24 0 -25 -3 -25 -56 0 -47 -3 -55 -17 -52
-14 2 -17 13 -14 56 2 50 1 52 -23 52 -16 0 -26 6 -26 15 0 12 14 15 65 15 51
0 65 -3 65 -15z m72 -15 c-2 -17 -10 -30 -18 -30 -9 0 -14 11 -14 30 0 22 5
30 18 30 15 0 18 -6 14 -30z m147 17 c16 -20 2 -28 -36 -21 -21 4 -33 2 -33
-5 0 -6 7 -11 15 -11 31 0 65 -23 65 -45 0 -45 -54 -60 -99 -29 -20 15 -21 18
-8 26 10 5 24 4 36 -4 16 -10 23 -10 32 -1 9 9 5 14 -17 19 -52 12 -70 44 -42
72 16 16 73 15 87 -1z"/>
<path d="M1311 291 c-63 -34 -79 -99 -35 -150 35 -42 86 -51 125 -22 l30 22
33 -20 c42 -26 72 -26 115 0 30 18 35 19 50 5 20 -18 43 -20 57 -6 8 8 19 7
37 -1 21 -9 33 -9 52 -1 20 9 30 9 45 0 16 -10 24 -10 39 -1 15 9 26 9 49 1
24 -9 36 -9 54 1 20 10 29 9 53 -3 38 -20 58 -20 97 0 28 15 33 14 63 -2 43
-23 99 -13 122 22 14 22 14 29 4 46 -9 14 -9 24 -2 31 18 18 38 -1 45 -42 5
-32 13 -44 32 -53 23 -11 29 -10 45 11 11 13 19 34 19 48 0 13 9 33 20 45 26
28 26 32 -11 62 -24 20 -38 25 -66 21 -20 -2 -43 -11 -53 -20 -21 -19 -26 -19
-58 4 -30 21 -61 19 -102 -6 -24 -14 -31 -14 -44 -4 -9 7 -32 17 -53 21 -30 7
-42 5 -66 -12 -21 -15 -31 -18 -40 -9 -14 14 -54 15 -62 1 -4 -6 -14 -4 -28 5
-20 13 -26 13 -50 0 -22 -11 -33 -12 -53 -3 -19 9 -30 9 -43 1 -11 -7 -23 -8
-32 -2 -20 12 -63 11 -76 -2 -9 -9 -22 -6 -54 9 -43 22 -66 19 -112 -13 -18
-12 -23 -12 -46 4 -41 29 -63 31 -100 12z m94 -41 c17 -18 17 -20 1 -26 -10
-4 -22 -2 -29 5 -27 27 -70 0 -60 -40 6 -23 30 -31 54 -19 12 7 25 7 35 2 14
-8 13 -11 -7 -26 -73 -50 -154 29 -103 102 20 29 83 31 109 2z m170 0 c42 -47
8 -120 -55 -120 -60 0 -91 92 -43 128 26 19 77 15 98 -8z m130 -20 c15 -22 30
-40 32 -40 3 0 3 18 1 40 -3 33 0 40 14 40 16 0 18 -10 18 -70 0 -84 -9 -88
-63 -28 l-38 43 5 -42 c6 -38 4 -43 -14 -43 -18 0 -20 7 -20 70 0 62 2 70 19
70 10 0 30 -18 46 -40z m184 -2 l31 -42 0 42 c0 35 3 42 20 42 18 0 20 -7 20
-70 0 -62 -2 -70 -19 -70 -11 0 -33 18 -50 42 l-31 42 0 -42 c0 -35 -3 -42
-20 -42 -18 0 -20 7 -20 70 0 62 2 70 19 70 11 0 33 -18 50 -42z m231 27 c0
-11 -11 -15 -41 -15 -28 0 -39 -4 -36 -12 2 -7 16 -12 31 -10 18 2 26 -2 26
-13 0 -10 -10 -15 -31 -15 -20 0 -29 -4 -26 -12 2 -7 19 -13 38 -13 24 0 34
-5 34 -15 0 -11 -14 -16 -52 -18 l-53 -3 0 70 0 71 55 0 c42 0 55 -3 55 -15z
m156 1 c15 -12 16 -17 7 -27 -10 -10 -18 -10 -37 1 -29 15 -56 1 -56 -30 0
-31 27 -45 56 -30 19 10 27 11 36 2 17 -17 -18 -41 -58 -42 -58 0 -90 67 -54
113 24 31 73 37 106 13z m184 -1 c0 -9 -9 -15 -25 -15 -24 0 -25 -3 -25 -55 0
-50 -2 -55 -21 -55 -20 0 -21 4 -16 55 5 53 5 55 -19 55 -15 0 -24 6 -24 15 0
12 14 15 65 15 51 0 65 -3 65 -15z"/>
<path d="M1497 233 c-13 -12 -7 -50 9 -64 31 -26 70 25 44 56 -13 16 -42 20
-53 8z"/>
</g>
</svg>
